<svg width="160" height="160" xmlns:xlink="http://www.w3.org/1999/xlink" xmlns="http://www.w3.org/2000/svg"><path style="fill:#222;fill-opacity:1;stroke-width:1;stroke-linejoin:round;stroke-dasharray:none" d="M0 0h160v160H0z"/><path style="fill:#435ab8;fill-opacity:1;stroke:none;stroke-width:60;stroke-linejoin:round" d="M34.734 90a25 25 0 0 0-.685.686 25 25 0 0 0-.99 1.129 25 25 0 0 0-1.168 1.562 25 25 0 0 0-.82 1.227 25 25 0 0 0-.964 1.761 25 25 0 0 0-.625 1.27 25 25 0 0 0-.728 1.953 25 25 0 0 0-.436 1.281 25 25 0 0 0-.472 2.176 25 25 0 0 0-.237 1.182 25 25 0 0 0-.242 3.406 25 25 0 0 0 .242 3.406 25 25 0 0 0 .237 1.182 25 25 0 0 0 .472 2.176 25 25 0 0 0 .436 1.28 25 25 0 0 0 .728 1.954 25 25 0 0 0 .625 1.27 25 25 0 0 0 .963 1.761 25 25 0 0 0 .82 1.227 25 25 0 0 0 1.169 1.562 25 25 0 0 0 .99 1.13 25 25 0 0 0 1.37 1.37 25 25 0 0 0 1.13.99 25 25 0 0 0 1.562 1.168 25 25 0 0 0 1.227.82 25 25 0 0 0 1.762.964 25 25 0 0 0 1.269.625 25 25 0 0 0 1.953.728 25 25 0 0 0 1.281.436 25 25 0 0 0 2.176.472 25 25 0 0 0 1.182.237 25 25 0 0 0 3.406.242 25 25 0 0 0 3.406-.242 25 25 0 0 0 1.182-.237 25 25 0 0 0 2.176-.472 25 25 0 0 0 1.281-.436 25 25 0 0 0 1.953-.728 25 25 0 0 0 1.27-.625 25 25 0 0 0 1.761-.963 25 25 0 0 0 1.227-.82 25 25 0 0 0 1.562-1.168 25 25 0 0 0 1.13-.99 25 25 0 0 0 .685-.686l-7.043-7.043c-2.473 2.455-5.802 4.051-9.291 4.34-5.27.488-10.697-2.05-13.643-6.455-3.148-4.47-3.498-10.7-.882-15.499a14.32 14.32 0 0 1 2.636-3.566z" id="b"/><path style="fill:#435ab8;fill-opacity:1;stroke:none;stroke-width:60;stroke-linejoin:round" d="m70 54.734-10 10v60.532h10z" id="a"/><path style="fill:#435ab8;fill-opacity:1;stroke:none;stroke-width:1;stroke-linejoin:round;stroke-dasharray:none" transform="rotate(-45)" d="M-20 108.137h40v10h-40z"/><use xlink:href="#a" transform="rotate(180 80 80)"/><use xlink:href="#b" transform="rotate(180 80 80)"/></svg>